<svg xmlns="http://www.w3.org/2000/svg" viewBox="0 0 43 36.754">
  <defs>
    <style>
      .cls-1 {
        fill: #9fb7bf;
      }
    </style>
  </defs>
  <g id="PELICAN-icon" transform="translate(-5.002 -11.976)">
    <g id="Group_21332" data-name="Group 21332" transform="translate(5.002 11.976)">
      <path id="Path_8416" data-name="Path 8416" class="cls-1" d="M5.073,19.532a1.432,1.432,0,0,1,1.331.784c.5-.947-.5-1.356-.441-2.35,1.412.879,2.167,2.361,3.574,3.417-.313-1.063-1.065-1.671-1.188-2.562-.22-.382-.316-.708.313-.706a38.76,38.76,0,0,0,2.759,3.956c.216-.819-.379-1.426-.086-2.121.561-.02.6.477.718.814.962,2.854,3.185,4.577,5.459,6.248.768.564,1.588,1.057,2.381,1.587.234.156.4.437.767.2.508-.333.177-.5-.092-.7.7-.585-.076-1.88,1.064-2.271.129-.044.319-.312.3-.346-.912-1.323.657-.926.941-1.414-.492-.278-1.03-.385-.558-1.281.729-1.381.512-3.1,1.342-4.493.029-.048.072-.122.055-.159-.984-2.193.774-1.1,1.525-1.174-.181-1.041-.875-1.764-1.153-2.713,1.105.285,1.105.285,2.454,2.012a24.329,24.329,0,0,0-.521-2.8c-.026-.38-.249-1.213.615-.459a1.782,1.782,0,0,0,.25.155,3.611,3.611,0,0,0,.068-.527c0-.242-.043-.557.2-.633.327-.1.508.18.671.452a20.8,20.8,0,0,1,1.862,4.588l.311-2.023a.47.47,0,0,1,.572.442c.431,2.356.925,4.7,1.228,7.077a5.031,5.031,0,0,0,.5,2.029,3.8,3.8,0,0,1,.135,3.455c-.783,2.06-1.8,4.084-1.567,6.406a13.188,13.188,0,0,0,.2,1.606c.148.643.628.613,1.227.421-.638-.936-1.27-1.887-.452-3.008.69-.947,2.662-1.652,3.721-1.019,2.021,1.209,4.278,1.372,6.47,1.786,1.923.363,5.721,1.262,5.721,1.262s1.051,1.276-1.046,1.116-4.123.246-6.7-.089c-.937-.122-1.828-.468-1.594,1.13a2.2,2.2,0,0,1-.986,1.845C32.6,43.754,27.219,46.758,20.6,46.761a5.327,5.327,0,0,0-2.835.78c-1.315.762-2.74,2-4.349.442a.354.354,0,0,0-.17-.05c-.671-.1-1.8.583-1.819-.688a3.4,3.4,0,0,1,1.761-3.139,8.487,8.487,0,0,1,2.208-.708c1.728-.393,1.542-2.113,2.278-3.187.13-.189-.04-.273-.219-.345-3.23-1.292-4.448-4.449-6.337-6.987-2.155-2.895-2.8-6.559-4.8-9.533C7.126,21.665,4.546,21.117,5.073,19.532Z" transform="translate(-5.002 -11.976)"/>
      <path id="Path_8417" data-name="Path 8417" class="cls-1" d="M88.293,23.765c-.344.127-.248.453-.313.706a2.285,2.285,0,0,1-.372-.588c-.079-.3-.622-.667-.138-.9C88.135,22.673,88.128,23.376,88.293,23.765Z" transform="translate(-84.634 -17.625)"/>
    </g>
  </g>
</svg>
