<svg xmlns="http://www.w3.org/2000/svg" width="64" height="56.995"><g transform="translate(-175.7 -78)" fill="#61dafb"><path data-name="Path 14" d="M239.7 106.5c0-4.24-5.309-8.258-13.45-10.749 1.879-8.3 1.044-14.9-2.635-17.011a5.719 5.719 0 00-2.922-.731v2.909a3.021 3.021 0 011.487.339c1.774 1.018 2.544 4.892 1.944 9.875a39.976 39.976 0 01-.665 3.835 63.218 63.218 0 00-8.284-1.422 63.636 63.636 0 00-5.427-6.523c4.253-3.953 8.245-6.118 10.958-6.118V78c-3.587 0-8.284 2.557-13.032 6.992-4.748-4.409-9.445-6.94-13.032-6.94v2.909c2.7 0 6.705 2.152 10.958 6.079a61.613 61.613 0 00-5.388 6.51 60.917 60.917 0 00-8.3 1.435c-.3-1.3-.522-2.57-.678-3.783-.613-4.983.144-8.858 1.9-9.888a2.9 2.9 0 011.5-.339v-2.91a5.817 5.817 0 00-2.948.731c-3.666 2.113-4.488 8.7-2.6 16.972-8.114 2.5-13.4 6.51-13.4 10.736s5.309 8.258 13.45 10.749c-1.879 8.3-1.044 14.9 2.635 17.011a5.735 5.735 0 002.935.731c3.587 0 8.284-2.557 13.032-6.992 4.748 4.409 9.445 6.94 13.032 6.94a5.817 5.817 0 002.948-.731c3.666-2.113 4.488-8.7 2.6-16.972 8.099-2.491 13.382-6.509 13.382-10.74zm-16.985-8.7a58.959 58.959 0 01-1.761 5.153c-.535-1.044-1.1-2.087-1.709-3.131s-1.239-2.061-1.879-3.053a60.79 60.79 0 015.349 1.031zm-5.975 13.9a69.51 69.51 0 01-3.144 4.983c-1.944.17-3.914.261-5.9.261s-3.94-.091-5.87-.248q-1.624-2.329-3.157-4.957-1.487-2.563-2.713-5.192a67.518 67.518 0 012.7-5.205 69.51 69.51 0 013.144-4.983c1.944-.17 3.914-.261 5.9-.261s3.94.091 5.87.248q1.624 2.329 3.157 4.957 1.487 2.563 2.713 5.192a74.192 74.192 0 01-2.7 5.205zm4.214-1.7c.7 1.748 1.3 3.5 1.8 5.192-1.709.417-3.509.77-5.375 1.044.639-1 1.278-2.035 1.879-3.092s1.161-2.1 1.696-3.144zm-13.228 13.919a53.777 53.777 0 01-3.627-4.174c1.174.052 2.374.091 3.587.091s2.439-.026 3.627-.091a50.915 50.915 0 01-3.587 4.174zm-9.706-7.684a58.734 58.734 0 01-5.349-1.031 58.959 58.959 0 011.761-5.153c.535 1.044 1.1 2.087 1.709 3.131s1.24 2.062 1.879 3.054zm9.64-27.147a53.786 53.786 0 013.627 4.174c-1.174-.052-2.374-.091-3.587-.091s-2.439.026-3.627.091a50.92 50.92 0 013.588-4.174zm-9.654 7.684c-.639 1-1.278 2.035-1.879 3.092s-1.161 2.087-1.7 3.131c-.7-1.748-1.3-3.5-1.8-5.192a64.573 64.573 0 015.38-1.031zM186.2 113.1c-4.618-1.97-7.605-4.553-7.605-6.6s2.987-4.644 7.605-6.6c1.122-.483 2.348-.913 3.614-1.318a62.656 62.656 0 002.935 7.945 61.773 61.773 0 00-2.9 7.905 38.048 38.048 0 01-3.649-1.332zm7.018 18.642c-1.774-1.018-2.544-4.892-1.944-9.875.143-1.226.378-2.518.665-3.835a63.223 63.223 0 008.284 1.422 63.635 63.635 0 005.427 6.523c-4.253 3.953-8.245 6.118-10.958 6.118a3.113 3.113 0 01-1.472-.349zm30.943-9.94c.613 4.983-.144 8.858-1.9 9.888a2.9 2.9 0 01-1.5.339c-2.7 0-6.705-2.152-10.958-6.079a61.614 61.614 0 005.388-6.51 60.919 60.919 0 008.3-1.435 36.525 36.525 0 01.672 3.801zm5.022-8.7c-1.122.483-2.348.913-3.614 1.318a62.652 62.652 0 00-2.935-7.945 61.772 61.772 0 002.9-7.905c1.291.4 2.518.848 3.666 1.331 4.618 1.97 7.605 4.553 7.605 6.6s-3.005 4.647-7.619 6.599z"/><circle data-name="Ellipse 1" cx="6.004" cy="6.004" r="6.004" transform="translate(201.684 100.5)"/></g></svg>