<svg xmlns="http://www.w3.org/2000/svg" width="64" height="62.4"><path data-name="Path 2" d="M52.667 62.4H11.333A11.324 11.324 0 010 51.067V11.333A11.324 11.324 0 0111.333 0h41.334A11.324 11.324 0 0164 11.333v39.734A11.324 11.324 0 0152.667 62.4z" fill="#ff26be"/><path data-name="Path 3" d="M51.658 59.741H12.341a9.7 9.7 0 01-9.683-9.683V12.341a9.7 9.7 0 019.683-9.683h39.291a9.682 9.682 0 019.683 9.683v37.691a9.665 9.665 0 01-9.657 9.709z" fill="#2e001f"/><path data-name="Path 4" d="M25.323 29.198l7.443 14.3c.133.213.053.425-.16.425h-4.624a.522.522 0 01-.558-.346c-1.7-3.509-3.429-7.018-5.21-10.793h-.054c-1.6 3.562-3.35 7.311-5.051 10.82a.51.51 0 01-.479.292h-4.386c-.266 0-.292-.213-.16-.372l7.284-13.877-7.044-14.032a.215.215 0 01.16-.372h4.572a.419.419 0 01.479.292 549.564 549.564 0 014.971 10.66h.053c1.541-3.51 3.241-7.152 4.891-10.634.133-.213.213-.346.479-.346h4.28c.213 0 .292.16.16.372zm8.746 4.333c0-6.194 4.12-11.032 10.66-11.032a11.788 11.788 0 011.382.053v-7.045a.266.266 0 01.266-.266h4.2c.213 0 .266.08.266.213v24.4a18.935 18.935 0 00.133 2.605c0 .16-.053.213-.213.292a15.835 15.835 0 01-6.805 1.542c-5.768.031-9.889-3.531-9.889-10.762zm12.042-6.805a4.02 4.02 0 00-1.542-.266c-3.35 0-5.689 2.579-5.689 6.859 0 4.891 2.393 6.859 5.4 6.859a5.015 5.015 0 001.834-.292z" fill="#ffd9f2"/></svg>