<svg xmlns="http://www.w3.org/2000/svg" width="174.805" height="104.314" viewBox="0 0 174.805 104.314">
  <g id="Group_2" data-name="Group 2" transform="translate(-105.08 -161.242)">
    <path id="Union_1" data-name="Union 1" d="M7.1,80.885A19.958,19.958,0,0,1,0,65.6V20A20,20,0,0,1,20,0H154.805a20,20,0,0,1,20,20V65.6a20,20,0,0,1-20,20H28.888c-.616,7.756,8.465,18.712,8.465,18.712S14.292,87.407,7.1,80.885Z" transform="translate(105.08 161.242)" fill="#d5dc4a"/>
    <text id="cMEDIA" transform="translate(136 211.556)" fill="#fff" font-size="28" font-family="Montserrat-Regular, Montserrat"><tspan x="0" y="0">c</tspan><tspan y="0" font-size="27" font-family="Montserrat-Bold, Montserrat" font-weight="700">MEDIA</tspan></text>
    <g id="Rectangle_3" data-name="Rectangle 3" transform="translate(122.549 176.546)" fill="none" stroke="#fff" stroke-width="2">
      <rect width="136.407" height="50.554" stroke="none"/>
      <rect x="1" y="1" width="134.407" height="48.554" fill="none"/>
    </g>
    <g id="Rectangle_4" data-name="Rectangle 4" transform="translate(126.171 180.511)" fill="none" stroke="#fff" stroke-width="2">
      <rect width="136.407" height="50.554" stroke="none"/>
      <rect x="1" y="1" width="134.407" height="48.554" fill="none"/>
    </g>
  </g>
</svg>
