<svg xmlns="http://www.w3.org/2000/svg" xmlns:xlink="http://www.w3.org/1999/xlink" width="191" height="122.314" viewBox="0 0 191 122.314">
  <defs>
    <filter id="Union_1" x="0" y="0" width="191" height="122.314" filterUnits="userSpaceOnUse">
      <feOffset dy="3" input="SourceAlpha"/>
      <feGaussianBlur stdDeviation="3" result="blur"/>
      <feFlood flood-opacity="0.161"/>
      <feComposite operator="in" in2="blur"/>
      <feComposite in="SourceGraphic"/>
    </filter>
  </defs>
  <g id="Group_1" data-name="Group 1" transform="translate(-96.08 -155.242)">
    <g id="Group_2" data-name="Group 2">
      <g transform="matrix(1, 0, 0, 1, 96.08, 155.24)" filter="url(#Union_1)">
        <path id="Union_1-2" data-name="Union 1" d="M5.423,79.3A19.93,19.93,0,0,1,0,65.6V20A20,20,0,0,1,20,0H153a20,20,0,0,1,20,20V65.6a20,20,0,0,1-20,20H28.589c-.609,7.756,8.377,18.712,8.377,18.712S9.467,83.943,5.423,79.3Z" transform="translate(9 6)" fill="#d5dc4a"/>
      </g>
    </g>
  </g>
</svg>
