<svg xmlns="http://www.w3.org/2000/svg" width="64" height="72.577" viewBox="0 0 64 72.577">
  <g id="css-3" transform="translate(0 -17.317)">
    <g id="_0170baff" data-name="#0170baff" transform="translate(0 17.317)">
      <path id="Path_8" data-name="Path 8" d="M0,92.451q32,0,64,0c-1.174,13.268-2.33,26.536-3.553,39.8q-1.09,12.717-2.266,25.428c-4.553,1.206-9.06,2.581-13.611,3.792-4.18,1.227-8.394,2.337-12.575,3.554h-.124c-3.98-1.184-8-2.225-11.978-3.408-4.7-1.266-9.352-2.678-14.051-3.938-.612-6.35-1.165-12.7-1.71-19.059C3.1,126.88,1.987,115.148,1,103.406.655,99.872.41,96.327,0,92.8v-.35m32.1,5.234c-.045,2.549.034,5.1-.045,7.646-7.319-.026-14.639-.006-21.958,0,.125,2.474.457,4.931.8,7.384,6.809.253,13.628-.009,20.437.195-5.957,2.672-11.987,5.189-17.971,7.805a8.073,8.073,0,0,0-1.521.734c.051,2.717.489,5.42.682,8.131,3.629-.013,7.257-.071,10.886-.077,2.908-.015,5.819.043,8.727-.021-.139,4.468.043,8.942-.094,13.41-1.957-.29-3.89-.727-5.839-1.073-1.537-.335-3.112-.509-4.627-.949-.215-2.144-.365-4.3-.556-6.442a4.847,4.847,0,0,0-1.356-.129c-2.2.013-4.4-.007-6.6.026a122.65,122.65,0,0,0,1.217,12.332c2.169.566,4.341,1.12,6.506,1.71,3.317.9,6.674,1.654,10,2.541a4.2,4.2,0,0,0,1.2.2c.221,2.714.051,5.444.092,8.165a16.655,16.655,0,0,0,2.258-.541c6.289-1.708,12.57-3.448,18.854-5.172.313-2.472.459-4.961.706-7.438q.98-11.3,2-22.594c.8-8.614,1.5-17.238,2.307-25.853C49.5,97.681,40.8,97.657,32.1,97.685Z" transform="translate(0 -92.448)" fill="#0170ba"/>
    </g>
    <g id="_29a9dfff" data-name="#29a9dfff" transform="translate(32.044 22.531)">
      <path id="Path_9" data-name="Path 9" d="M170.922,120.35c8.685-.028,17.371,0,26.058-.011-.808,8.617-1.5,17.244-2.3,25.861q-1.026,11.3-1.995,22.6c-.247,2.478-.393,4.968-.7,7.441-6.274,1.725-12.544,3.466-18.821,5.174a16.59,16.59,0,0,1-2.255.541c-.041-2.722.129-5.453-.092-8.168l.226-.045c5.838-1.469,11.637-3.085,17.462-4.606.737-8.28,1.553-16.556,2.071-24.853-4.954.026-9.91.011-14.864.032-.722,0-1.443,0-2.161-.052,2.666-1.375,5.47-2.465,8.207-3.692,2.627-1.193,5.285-2.312,7.921-3.482a7.333,7.333,0,0,0,1.5-.777,12.388,12.388,0,0,0,.236-1.984c.151-2.1.421-4.185.522-6.285-7.016-.056-14.032-.007-21.05-.045C170.956,125.451,170.877,122.9,170.922,120.35Z" transform="translate(-170.81 -120.336)" fill="#29a9df"/>
      <path id="Path_10" data-name="Path 10" d="M171.193,290.135c3.387-.058,6.777.034,10.166.011-.189,3.464-.477,6.922-.656,10.387-2.077.679-4.186,1.253-6.279,1.881a24.4,24.4,0,0,0-3.324,1.109C171.236,299.062,171.055,294.6,171.193,290.135Z" transform="translate(-171.046 -258.292)" fill="#29a9df"/>
    </g>
    <g id="_cfcfcfff" data-name="#cfcfcfff" transform="translate(10.107 30.226)">
      <path id="Path_11" data-name="Path 11" d="M53.92,161.186c7.306-.007,14.613-.028,21.919,0,.1,8.039-.024,16.077.08,24.112-2.9.064-5.808.006-8.712.021-3.623.006-7.244.064-10.867.077-.193-2.707-.63-5.4-.68-8.117a8.059,8.059,0,0,1,1.518-.733c5.973-2.612,11.992-5.124,17.939-7.792-6.8-.2-13.6.058-20.4-.194C54.376,166.108,54.045,163.655,53.92,161.186Z" transform="translate(-53.92 -161.171)" fill="#cfcfcf"/>
      <path id="Path_12" data-name="Path 12" d="M69.76,315.966c2.2-.034,4.393-.013,6.588-.026a4.84,4.84,0,0,1,1.353.129c.191,2.142.34,4.29.555,6.431,1.512.439,3.085.613,4.619.948,1.946.346,3.875.781,5.829,1.071.187,2.714-.14,5.448.172,8.153l-.226.045a4.188,4.188,0,0,1-1.2-.2c-3.316-.886-6.668-1.636-9.979-2.537-2.161-.589-4.33-1.142-6.494-1.707A122.429,122.429,0,0,1,69.76,315.966Z" transform="translate(-66.799 -287.007)" fill="#cfcfcf"/>
    </g>
    <g id="_ffffffff" data-name="#ffffffff" transform="translate(32.07 30.239)">
      <path id="Path_13" data-name="Path 13" d="M171.113,161.24c7.018.037,14.034-.011,21.05.045-.1,2.1-.37,4.178-.522,6.272a12.336,12.336,0,0,1-.236,1.98,7.336,7.336,0,0,1-1.5.776c-2.636,1.168-5.294,2.284-7.921,3.475-2.737,1.224-5.541,2.312-8.207,3.685.718.052,1.439.056,2.161.052,4.954-.021,9.91-.006,14.864-.032-.518,8.28-1.335,16.539-2.071,24.8-5.825,1.518-11.624,3.131-17.462,4.6-.312-2.705.015-5.438-.172-8.153a24.415,24.415,0,0,1,3.324-1.109c2.094-.628,4.2-1.2,6.279-1.881.179-3.464.467-6.922.656-10.387-3.389.022-6.779-.069-10.166-.011C171.089,177.317,171.208,169.279,171.113,161.24Z" transform="translate(-171.1 -161.24)" fill="#fff"/>
    </g>
  </g>
</svg>
