<svg xmlns="http://www.w3.org/2000/svg" width="64" height="72.573" viewBox="0 0 64 72.573">
  <g id="html5" transform="translate(-74.6 -100.6)">
    <path id="Path_18" data-name="Path 18" d="M80.421,165.941,74.6,100.6h64l-5.821,65.305-26.232,7.268" fill="#e44d26"/>
    <path id="Path_19" data-name="Path 19" d="M256,192.3V131h27l-5.153,55.426" transform="translate(-150.431 -24.864)" fill="#f16529"/>
    <path id="Path_20" data-name="Path 20" d="M142,176.3h20.758v7.854h-11.69l.765,8.045h10.926v7.837h-18.5m.364,3.944h8.3l.583,6.28,9.25,2.353v8.2l-16.971-4.5" transform="translate(-55.686 -61.916)" fill="#ebebeb"/>
    <path id="Path_21" data-name="Path 21" d="M276.522,176.3H255.8v7.854h19.957m-.747,8.044H255.8v7.854H266l-.965,10.207-9.232,2.353v8.165l16.934-4.463" transform="translate(-149.706 -61.916)" fill="#fff"/>
  </g>
</svg>
