<svg xmlns="http://www.w3.org/2000/svg" width="64" height="56.995" viewBox="0 0 64 56.995">
  <g id="React-icon" transform="translate(-175.7 -78)">
    <path id="Path_14" data-name="Path 14" d="M239.7,106.5c0-4.24-5.309-8.258-13.45-10.749,1.879-8.3,1.044-14.9-2.635-17.011a5.719,5.719,0,0,0-2.922-.731v2.909a3.021,3.021,0,0,1,1.487.339c1.774,1.018,2.544,4.892,1.944,9.875-.143,1.226-.378,2.518-.665,3.835a63.218,63.218,0,0,0-8.284-1.422,63.636,63.636,0,0,0-5.427-6.523c4.253-3.953,8.245-6.118,10.958-6.118V78h0c-3.587,0-8.284,2.557-13.032,6.992-4.748-4.409-9.445-6.94-13.032-6.94v2.909c2.7,0,6.705,2.152,10.958,6.079a61.613,61.613,0,0,0-5.388,6.51,60.917,60.917,0,0,0-8.3,1.435c-.3-1.3-.522-2.57-.678-3.783-.613-4.983.144-8.858,1.9-9.888a2.9,2.9,0,0,1,1.5-.339V78.065h0a5.817,5.817,0,0,0-2.948.731c-3.666,2.113-4.488,8.7-2.6,16.972-8.114,2.5-13.4,6.51-13.4,10.736s5.309,8.258,13.45,10.749c-1.879,8.3-1.044,14.9,2.635,17.011a5.735,5.735,0,0,0,2.935.731c3.587,0,8.284-2.557,13.032-6.992,4.748,4.409,9.445,6.94,13.032,6.94a5.817,5.817,0,0,0,2.948-.731c3.666-2.113,4.488-8.7,2.6-16.972C234.417,114.749,239.7,110.731,239.7,106.5Zm-16.985-8.7c-.483,1.683-1.083,3.418-1.761,5.153-.535-1.044-1.1-2.087-1.709-3.131s-1.239-2.061-1.879-3.053C219.219,97.046,221.006,97.385,222.715,97.8ZM216.74,111.7c-1.018,1.761-2.061,3.431-3.144,4.983-1.944.17-3.914.261-5.9.261s-3.94-.091-5.87-.248q-1.624-2.329-3.157-4.957-1.487-2.563-2.713-5.192c.809-1.748,1.722-3.5,2.7-5.205,1.018-1.761,2.061-3.431,3.144-4.983,1.944-.17,3.914-.261,5.9-.261s3.94.091,5.87.248q1.624,2.329,3.157,4.957,1.487,2.563,2.713,5.192C218.619,108.239,217.719,109.987,216.74,111.7Zm4.214-1.7c.7,1.748,1.3,3.5,1.8,5.192-1.709.417-3.509.77-5.375,1.044.639-1,1.278-2.035,1.879-3.092S220.419,111.044,220.954,110Zm-13.228,13.919a53.777,53.777,0,0,1-3.627-4.174c1.174.052,2.374.091,3.587.091s2.439-.026,3.627-.091A50.915,50.915,0,0,1,207.726,123.919Zm-9.706-7.684c-1.852-.274-3.64-.613-5.349-1.031.483-1.683,1.083-3.418,1.761-5.153.535,1.044,1.1,2.087,1.709,3.131S197.381,115.244,198.02,116.236Zm9.64-27.147a53.786,53.786,0,0,1,3.627,4.174c-1.174-.052-2.374-.091-3.587-.091s-2.439.026-3.627.091A50.92,50.92,0,0,1,207.661,89.088Zm-9.654,7.684c-.639,1-1.278,2.035-1.879,3.092s-1.161,2.087-1.7,3.131c-.7-1.748-1.3-3.5-1.8-5.192C194.342,97.4,196.142,97.046,198.007,96.772ZM186.2,113.1c-4.618-1.97-7.605-4.553-7.605-6.6s2.987-4.644,7.605-6.6c1.122-.483,2.348-.913,3.614-1.318a62.656,62.656,0,0,0,2.935,7.945,61.773,61.773,0,0,0-2.9,7.905C188.563,114.031,187.336,113.587,186.2,113.1Zm7.018,18.642c-1.774-1.018-2.544-4.892-1.944-9.875.143-1.226.378-2.518.665-3.835a63.223,63.223,0,0,0,8.284,1.422,63.635,63.635,0,0,0,5.427,6.523c-4.253,3.953-8.245,6.118-10.958,6.118A3.113,3.113,0,0,1,193.22,131.746Zm30.943-9.94c.613,4.983-.144,8.858-1.9,9.888a2.9,2.9,0,0,1-1.5.339c-2.7,0-6.705-2.152-10.958-6.079a61.614,61.614,0,0,0,5.388-6.51,60.919,60.919,0,0,0,8.3-1.435A36.525,36.525,0,0,1,224.163,121.806Zm5.022-8.7c-1.122.483-2.348.913-3.614,1.318a62.652,62.652,0,0,0-2.935-7.945,61.772,61.772,0,0,0,2.9-7.905c1.291.4,2.518.848,3.666,1.331,4.618,1.97,7.605,4.553,7.605,6.6S233.8,111.148,229.186,113.1Z" fill="#61dafb"/>
    <path id="Path_15" data-name="Path 15" d="M320.8,78.4Z" transform="translate(-126.171 -0.347)" fill="#61dafb"/>
    <circle id="Ellipse_1" data-name="Ellipse 1" cx="6.004" cy="6.004" r="6.004" transform="translate(201.684 100.5)" fill="#61dafb"/>
    <path id="Path_16" data-name="Path 16" d="M520.5,78.1Z" transform="translate(-299.82 -0.087)" fill="#61dafb"/>
  </g>
</svg>
