<svg id="xd-icon" xmlns="http://www.w3.org/2000/svg" width="64" height="62.4" viewBox="0 0 64 62.4">
  <path id="Path_2" data-name="Path 2" d="M52.667,62.4H11.333A11.324,11.324,0,0,1,0,51.067V11.333A11.324,11.324,0,0,1,11.333,0H52.667A11.324,11.324,0,0,1,64,11.333V51.067A11.324,11.324,0,0,1,52.667,62.4Z" fill="#ff26be"/>
  <path id="Path_3" data-name="Path 3" d="M59,67.083H19.683A9.7,9.7,0,0,1,10,57.4V19.683A9.7,9.7,0,0,1,19.683,10H58.974a9.682,9.682,0,0,1,9.683,9.683V57.374A9.665,9.665,0,0,1,59,67.083Z" transform="translate(-7.342 -7.342)" fill="#2e001f"/>
  <path id="Path_4" data-name="Path 4" d="M58.123,70.883l7.443,14.3c.133.213.053.425-.16.425H60.782a.522.522,0,0,1-.558-.346c-1.7-3.509-3.429-7.018-5.21-10.793H54.96c-1.6,3.562-3.35,7.311-5.051,10.82a.51.51,0,0,1-.479.292H45.044c-.266,0-.292-.213-.16-.372l7.284-13.877L45.124,57.3a.215.215,0,0,1,.16-.372h4.572a.419.419,0,0,1,.479.292c1.675,3.509,3.376,7.124,4.971,10.66h.053C56.9,64.37,58.6,60.728,60.25,57.246c.133-.213.213-.346.479-.346h4.28c.213,0,.292.16.16.372Zm8.746,4.333c0-6.194,4.12-11.032,10.66-11.032a11.788,11.788,0,0,1,1.382.053V57.192a.266.266,0,0,1,.266-.266h4.2c.213,0,.266.08.266.213v24.4a18.935,18.935,0,0,0,.133,2.605c0,.16-.053.213-.213.292a15.835,15.835,0,0,1-6.805,1.542C70.99,86.009,66.869,82.447,66.869,75.216Zm12.042-6.805a4.02,4.02,0,0,0-1.542-.266c-3.35,0-5.689,2.579-5.689,6.859,0,4.891,2.393,6.859,5.4,6.859a5.015,5.015,0,0,0,1.834-.292Z" transform="translate(-32.8 -41.685)" fill="#ffd9f2"/>
</svg>
